<svg width="226" height="107" viewBox="0 0 226 107" fill="none" xmlns="http://www.w3.org/2000/svg">
<path d="M-9.91821e-05 0.644531C2.61709 0.957031 4.88271 1.19141 6.79678 1.34766C8.71084 1.46484 10.2929 1.5625 11.5429 1.64062C12.9882 1.71875 14.1991 1.73828 15.1757 1.69922C16.1913 1.66016 17.578 1.5625 19.3358 1.40625C20.8202 1.28906 22.7733 1.13281 25.1952 0.9375C27.6171 0.703125 30.6444 0.390625 34.2772 0C34.3163 0.898438 34.3358 1.77734 34.3358 2.63672C34.3749 3.45703 34.414 4.17969 34.453 4.80469C34.4921 5.54687 34.5116 6.23047 34.5116 6.85547C34.5116 7.51953 34.4726 8.35937 34.3944 9.375C34.3163 10.2344 34.1796 11.3281 33.9843 12.6562C33.828 13.9453 33.5741 15.4883 33.2226 17.2852C32.6757 15.1758 32.1483 13.4766 31.6405 12.1875C31.1327 10.8594 30.664 9.80469 30.2343 9.02344C29.7655 8.125 29.2968 7.44141 28.828 6.97266C28.3202 6.62109 27.7147 6.32812 27.0116 6.09375C26.3866 5.89844 25.5858 5.74219 24.6093 5.625C23.6718 5.50781 22.5585 5.52734 21.2694 5.68359C21.0741 10.8398 20.9374 15.0195 20.8593 18.2227C20.7812 21.4258 20.7226 23.9258 20.6835 25.7227C20.6444 27.8711 20.6249 29.4141 20.6249 30.3516C20.664 31.6797 20.8788 32.9883 21.2694 34.2773C21.5819 35.3711 22.0897 36.5039 22.7929 37.6758C23.496 38.8477 24.5116 39.8828 25.8397 40.7812H18.6913C18.0272 40.7812 17.2069 40.8203 16.2304 40.8984C15.4101 40.9766 14.3554 41.0547 13.0663 41.1328C11.8163 41.2109 10.3515 41.3477 8.67178 41.543C9.25771 40.5273 9.72646 39.6094 10.078 38.7891C10.4296 37.9688 10.703 37.2656 10.8983 36.6797C11.1327 35.9766 11.3085 35.3516 11.4257 34.8047C11.4647 34.0234 11.5624 32.4414 11.7187 30.0586C11.7577 29.082 11.7968 27.8711 11.8358 26.4258C11.914 24.9805 11.9921 23.2617 12.0702 21.2695C12.1874 19.2773 12.2851 16.9922 12.3632 14.4141C12.4804 11.7969 12.5976 8.84766 12.7147 5.56641C12.0116 5.37109 11.3476 5.39062 10.7226 5.625C10.0976 5.82031 9.55068 6.07422 9.08193 6.38672C8.53506 6.77734 8.00771 7.24609 7.4999 7.79297C6.99209 8.45703 6.42568 9.31641 5.80068 10.3711C5.25381 11.2695 4.62881 12.4609 3.92568 13.9453C3.22256 15.3906 2.42178 17.1875 1.52334 19.3359C1.32803 17.0703 1.19131 15.2148 1.11318 13.7695C1.03506 12.2852 0.976463 11.1328 0.937401 10.3125C0.898338 9.33594 0.878807 8.61328 0.878807 8.14453C0.878807 7.71484 0.839745 7.14844 0.76162 6.44531C0.683495 5.85938 0.585838 5.09766 0.468651 4.16016C0.351463 3.18359 0.195213 2.01172 -9.91821e-05 0.644531ZM31.2749 15.3516C32.0171 15.3906 32.6812 15.4102 33.2671 15.4102C33.8921 15.3711 34.4194 15.332 34.8491 15.293C35.3569 15.2539 35.8062 15.2148 36.1968 15.1758C36.7827 15.0977 37.3882 15 38.0132 14.8828C38.5601 14.8047 39.1265 14.707 39.7124 14.5898C40.3374 14.4336 40.9429 14.2578 41.5288 14.0625C41.2944 14.6484 41.0991 15.1562 40.9429 15.5859C40.7866 16.0156 40.6694 16.3867 40.5913 16.6992C40.4741 17.0508 40.4155 17.3438 40.4155 17.5781C40.3765 17.8516 40.3569 18.1836 40.3569 18.5742C40.3179 19.2383 40.3179 20.3125 40.3569 21.7969C42.3882 20.0391 44.0874 18.6719 45.4546 17.6953C46.8608 16.7188 47.9741 15.957 48.7944 15.4102C49.771 14.7852 50.5327 14.375 51.0796 14.1797C52.5249 13.9453 53.7944 14.2773 54.8882 15.1758C55.3569 15.5664 55.8062 16.0938 56.2358 16.7578C56.6655 17.3828 57.0366 18.2227 57.3491 19.2773C57.6616 20.332 57.896 21.6016 58.0522 23.0859C58.2085 24.5312 58.228 26.2695 58.1108 28.3008C57.2905 28.3789 56.5483 28.457 55.8843 28.5352C55.2593 28.6133 54.7319 28.6719 54.3022 28.7109C53.7944 28.7891 53.3257 28.8281 52.896 28.8281L51.314 29.0039C50.7671 29.082 50.0835 29.1602 49.2632 29.2383C48.4819 29.2773 47.5249 29.3555 46.3921 29.4727C48.0327 28.1445 49.0874 26.9922 49.5562 26.0156C50.064 25 50.2788 24.1602 50.2007 23.4961C50.1226 22.7539 49.771 22.1094 49.146 21.5625C48.4038 21.1328 47.603 20.9766 46.7437 21.0938C46.0015 21.1719 45.1421 21.5039 44.1655 22.0898C43.189 22.6758 42.1538 23.7695 41.0601 25.3711C41.1382 27.8711 41.2163 29.9414 41.2944 31.582C41.4116 33.2227 41.5093 34.5508 41.5874 35.5664C41.7046 36.7383 41.8022 37.6562 41.8804 38.3203C41.9976 38.9062 42.2319 39.5312 42.5835 40.1953C42.8569 40.7422 43.2476 41.3477 43.7554 42.0117C44.2632 42.6758 44.9272 43.3398 45.7476 44.0039C44.0288 43.9258 42.6226 43.9258 41.5288 44.0039C40.8647 44.043 40.2788 44.082 39.771 44.1211C39.2241 44.1992 38.6382 44.2773 38.0132 44.3555C37.4663 44.4336 36.8218 44.5117 36.0796 44.5898C35.3765 44.707 34.5952 44.8242 33.7358 44.9414C34.0483 44.5117 34.3022 44.0039 34.4976 43.418C34.6929 42.8711 34.8491 42.3438 34.9663 41.8359C35.1226 41.25 35.2397 40.6445 35.3179 40.0195C35.3569 39.4727 35.3765 38.6523 35.3765 37.5586C35.4155 36.4648 35.396 35.2344 35.3179 33.8672C35.2788 32.4609 35.2202 31.0156 35.1421 29.5312C35.064 28.0078 34.9663 26.582 34.8491 25.2539C34.7319 23.9258 34.5952 22.7734 34.439 21.7969C34.3218 20.7812 34.1851 20.0781 34.0288 19.6875C33.8335 19.2188 33.5991 18.75 33.3257 18.2812C33.0913 17.8516 32.7983 17.4023 32.4468 16.9336C32.0952 16.4258 31.7046 15.8984 31.2749 15.3516ZM64.3663 19.6875C64.5616 19.4531 64.6788 19.0234 64.7179 18.3984C64.796 17.7344 64.9522 16.9922 65.1866 16.1719C65.4601 15.3516 65.9093 14.4922 66.5343 13.5938C67.1593 12.6953 68.1749 11.8555 69.5812 11.0742C70.9483 10.293 72.2765 9.82422 73.5655 9.66797C74.8546 9.51172 76.0851 9.57031 77.2569 9.84375C78.4288 10.1172 79.5226 10.5469 80.5382 11.1328C81.5929 11.7188 82.5499 12.3633 83.4093 13.0664C83.9952 13.5352 84.464 14.2188 84.8155 15.1172C85.1671 15.9766 85.4405 16.9531 85.6358 18.0469C85.8312 19.1406 85.9679 20.293 86.046 21.5039C86.1632 22.6758 86.2413 23.8281 86.2804 24.9609C86.3194 26.0547 86.339 27.0703 86.339 28.0078C86.378 28.9062 86.4562 29.6484 86.5733 30.2344C86.7296 31.0938 87.003 31.8359 87.3937 32.4609C87.7843 33.0469 88.214 33.5547 88.6827 33.9844C89.1515 34.375 89.6202 34.6875 90.089 34.9219C90.5577 35.1562 90.9679 35.332 91.3194 35.4492C91.5538 35.5664 91.7687 35.6445 91.964 35.6836C92.3546 35.8398 92.628 35.8398 92.7843 35.6836C92.5499 36.2305 92.3351 36.6992 92.1397 37.0898C91.9444 37.4805 91.7882 37.8125 91.671 38.0859C91.5147 38.3984 91.378 38.6523 91.2608 38.8477C91.1437 39.082 91.0069 39.2969 90.8507 39.4922C90.7335 39.6875 90.5772 39.9023 90.3819 40.1367C90.1866 40.3711 89.9913 40.625 89.796 40.8984C89.2882 40.7031 88.7999 40.4688 88.3312 40.1953C87.9015 39.9219 87.5108 39.668 87.1593 39.4336C86.7296 39.1602 86.339 38.8867 85.9874 38.6133C85.6358 38.3398 85.3038 38.0273 84.9913 37.6758C84.7179 37.3633 84.4249 37.0312 84.1124 36.6797C83.839 36.3281 83.6046 35.9375 83.4093 35.5078C83.1749 36.0156 82.6085 36.7383 81.7101 37.6758C80.8507 38.6133 79.7179 39.4727 78.3116 40.2539C76.9054 40.9961 75.2647 41.5234 73.3897 41.8359C71.5538 42.1484 69.5226 41.9336 67.296 41.1914C66.3194 40.8789 65.4015 40.4297 64.5421 39.8438C63.6827 39.2188 62.9405 38.4766 62.3155 37.6172C61.7296 36.7578 61.2999 35.7812 61.0265 34.6875C60.7921 33.5547 60.8116 32.3047 61.0851 30.9375C61.3585 29.5703 61.8468 28.418 62.5499 27.4805C63.253 26.543 64.0929 25.7812 65.0694 25.1953C66.046 24.6094 67.1397 24.1602 68.3507 23.8477C69.5616 23.5352 70.8116 23.3203 72.1007 23.2031C73.1163 23.1641 74.1319 23.2227 75.1476 23.3789C76.0069 23.5352 76.9054 23.8281 77.8429 24.2578C78.7804 24.6484 79.5812 25.2539 80.2452 26.0742C80.2062 24.0039 80.128 22.3633 80.0108 21.1523C79.9327 19.9023 79.8546 18.9453 79.7765 18.2812C79.6202 17.5 79.4835 16.9531 79.3663 16.6406C79.171 16.3672 78.9562 16.0547 78.7218 15.7031C78.5265 15.3516 78.2726 15.0391 77.9601 14.7656C77.6476 14.4531 77.2569 14.1992 76.7882 14.0039C76.3194 13.8086 75.7726 13.7305 75.1476 13.7695C74.4835 13.8086 73.9562 13.9844 73.5655 14.2969C73.1749 14.6094 72.8624 14.9805 72.628 15.4102C72.4327 15.8008 72.3155 16.2305 72.2765 16.6992C72.2374 17.168 72.2569 17.5781 72.3351 17.9297C72.4132 18.1641 72.5304 18.418 72.6866 18.6914C72.8429 18.9258 73.0577 19.1797 73.3312 19.4531C73.6046 19.7266 73.9757 19.9609 74.4444 20.1562C73.546 20.2734 72.7452 20.3711 72.0421 20.4492C71.339 20.4883 70.7335 20.5469 70.2257 20.625C69.6397 20.7031 69.1319 20.7617 68.7022 20.8008C68.2726 20.8398 67.7647 20.918 67.1788 21.0352C66.671 21.1133 66.046 21.2109 65.3038 21.3281C64.5616 21.4453 63.7022 21.6016 62.7257 21.7969C62.9601 21.5234 63.1749 21.2695 63.3702 21.0352C63.5655 20.7617 63.7413 20.5273 63.8976 20.332C64.0538 20.0977 64.2101 19.8828 64.3663 19.6875ZM73.1554 26.6602C72.4522 26.6992 71.7491 26.875 71.046 27.1875C70.3429 27.4609 69.7179 27.8711 69.171 28.418C68.6241 28.9258 68.1554 29.5312 67.7647 30.2344C67.4132 30.8984 67.2374 31.6406 67.2374 32.4609C67.2374 33.2812 67.4327 34.0039 67.8233 34.6289C68.253 35.2148 68.7999 35.7031 69.464 36.0938C70.1671 36.4844 70.9093 36.7188 71.6905 36.7969C72.5108 36.875 73.3116 36.7969 74.0929 36.5625C74.8351 36.2891 75.5382 35.8594 76.2022 35.2734C76.8663 34.6484 77.4327 33.9844 77.9015 33.2812C78.3702 32.5391 78.7022 31.8164 78.8976 31.1133C79.0929 30.3711 79.1124 29.7656 78.9562 29.2969C78.6437 28.2812 77.9405 27.5781 76.8468 27.1875C75.753 26.7578 74.5226 26.582 73.1554 26.6602ZM91.5983 17.2266L102.38 17.3438C101.755 19.7266 101.286 21.7578 100.973 23.4375C100.7 25.1172 100.524 26.5234 100.446 27.6562C100.29 28.9453 100.251 30.0391 100.329 30.9375C100.446 31.7578 100.641 32.6367 100.915 33.5742C101.149 34.3555 101.501 35.2539 101.969 36.2695C102.438 37.2852 103.063 38.3008 103.844 39.3164C103.376 39.1602 102.868 39.043 102.321 38.9648C101.774 38.8867 101.266 38.8281 100.798 38.7891C100.251 38.75 99.7038 38.75 99.1569 38.7891C98.6101 38.8281 98.0046 38.8867 97.3405 38.9648C96.7936 39.043 96.1296 39.1406 95.3483 39.2578C94.5671 39.375 93.7468 39.5312 92.8874 39.7266C93.4733 37.9688 93.9226 36.4453 94.2351 35.1562C94.5866 33.8672 94.8405 32.793 94.9968 31.9336C95.153 30.918 95.2507 30.0977 95.2897 29.4727C95.2897 28.6914 95.2897 27.8125 95.2897 26.8359C95.2897 25.8203 95.2897 24.8438 95.2897 23.9062C95.2897 22.9688 95.2702 22.1484 95.2311 21.4453C95.1921 20.7031 95.114 20.2344 94.9968 20.0391L94.4108 19.4531C94.1765 19.2578 93.8249 18.9844 93.3561 18.6328C92.9265 18.2422 92.3405 17.7734 91.5983 17.2266ZM95.7585 8.20312C96.5788 7.77344 97.3991 7.65625 98.2194 7.85156C99.0788 8.04688 99.7429 8.41797 100.212 8.96484C100.68 9.51172 100.837 10.1563 100.68 10.8984C100.563 11.6406 99.9382 12.3633 98.8054 13.0664C97.6726 13.7305 96.6765 13.9648 95.8171 13.7695C94.9577 13.5742 94.3522 13.1641 94.0007 12.5391C93.6491 11.9141 93.5905 11.1914 93.8249 10.3711C94.0593 9.51172 94.7038 8.78906 95.7585 8.20312ZM107.17 36.9727C107.444 35.6836 107.639 34.5508 107.756 33.5742C107.912 32.5586 108.03 31.7188 108.108 31.0547C108.186 30.2734 108.225 29.6094 108.225 29.0625C108.186 28.3984 108.147 27.6172 108.108 26.7188C108.108 25.7812 108.069 24.8633 107.991 23.9648C107.951 23.0273 107.893 22.207 107.815 21.5039C107.737 20.7617 107.639 20.2344 107.522 19.9219C107.366 19.6094 107.151 19.2773 106.877 18.9258C106.33 18.2617 105.53 17.6172 104.475 16.9922C105.373 16.7969 106.135 16.6406 106.76 16.5234C107.424 16.3672 107.971 16.2305 108.401 16.1133C108.869 15.957 109.28 15.8203 109.631 15.7031C109.944 15.5859 110.315 15.4688 110.744 15.3516C111.096 15.2734 111.526 15.1758 112.033 15.0586C112.541 14.9414 113.127 14.8047 113.791 14.6484L113.616 19.9805C114.866 18.4961 116.135 17.3828 117.424 16.6406C118.713 15.8984 119.924 15.3711 121.057 15.0586C122.346 14.668 123.616 14.4727 124.866 14.4727C126.428 14.5508 127.873 14.8047 129.201 15.2344C130.569 15.6641 131.741 16.1719 132.717 16.7578C133.733 17.3047 134.553 17.8906 135.178 18.5156C135.803 19.1406 136.174 19.6875 136.291 20.1562C136.76 21.6797 136.877 23.0859 136.643 24.375C136.408 25.625 136.096 26.8555 135.705 28.0664C135.354 29.2383 135.041 30.4102 134.768 31.582C134.533 32.7539 134.631 34.0234 135.061 35.3906C135.217 35.7422 135.373 36.0938 135.53 36.4453C135.686 36.7578 135.881 37.0703 136.116 37.3828C136.35 37.6953 136.623 37.9492 136.936 38.1445C136.506 38.1055 136.076 38.0859 135.647 38.0859C135.217 38.0469 134.826 38.0078 134.475 37.9688C134.045 37.9297 133.655 37.8906 133.303 37.8516C132.912 37.8125 132.385 37.793 131.721 37.793C130.588 37.793 128.83 37.8516 126.448 37.9688C126.799 37.1484 127.073 36.4648 127.268 35.918C127.502 35.332 127.698 34.8633 127.854 34.5117C128.01 34.082 128.127 33.75 128.205 33.5156C128.674 32.3828 128.948 31.0938 129.026 29.6484C129.143 28.2031 129.045 26.7383 128.733 25.2539C128.616 24.7461 128.42 24.1406 128.147 23.4375C127.873 22.7344 127.502 22.0508 127.033 21.3867C126.604 20.7227 126.076 20.1562 125.451 19.6875C124.866 19.2188 124.182 18.9453 123.401 18.8672C122.619 18.7891 121.741 18.9844 120.764 19.4531C119.826 19.9219 118.811 20.7812 117.717 22.0312C116.897 23.0859 116.252 24.375 115.783 25.8984C115.354 27.1875 115.061 28.8086 114.905 30.7617C114.748 32.6758 114.983 34.9219 115.608 37.5C115.061 37.4219 114.553 37.3828 114.084 37.3828C113.616 37.3438 113.225 37.3047 112.912 37.2656C112.522 37.2266 112.17 37.1875 111.858 37.1484C111.506 37.1484 111.116 37.1289 110.686 37.0898C110.295 37.0898 109.807 37.0898 109.221 37.0898C108.635 37.0508 107.951 37.0117 107.17 36.9727ZM139.91 17.2266L150.691 17.3438C150.066 19.7266 149.598 21.7578 149.285 23.4375C149.012 25.1172 148.836 26.5234 148.758 27.6562C148.601 28.9453 148.562 30.0391 148.641 30.9375C148.758 31.7578 148.953 32.6367 149.226 33.5742C149.461 34.3555 149.812 35.2539 150.281 36.2695C150.75 37.2852 151.375 38.3008 152.156 39.3164C151.687 39.1602 151.18 39.043 150.633 38.9648C150.086 38.8867 149.578 38.8281 149.109 38.7891C148.562 38.75 148.016 38.75 147.469 38.7891C146.922 38.8281 146.316 38.8867 145.652 38.9648C145.105 39.043 144.441 39.1406 143.66 39.2578C142.879 39.375 142.059 39.5312 141.199 39.7266C141.785 37.9688 142.234 36.4453 142.547 35.1562C142.898 33.8672 143.152 32.793 143.309 31.9336C143.465 30.918 143.562 30.0977 143.601 29.4727C143.601 28.6914 143.601 27.8125 143.601 26.8359C143.601 25.8203 143.601 24.8438 143.601 23.9062C143.601 22.9688 143.582 22.1484 143.543 21.4453C143.504 20.7031 143.426 20.2344 143.309 20.0391L142.723 19.4531C142.488 19.2578 142.137 18.9844 141.668 18.6328C141.238 18.2422 140.652 17.7734 139.91 17.2266ZM144.07 8.20312C144.891 7.77344 145.711 7.65625 146.531 7.85156C147.391 8.04688 148.055 8.41797 148.523 8.96484C148.992 9.51172 149.148 10.1563 148.992 10.8984C148.875 11.6406 148.25 12.3633 147.117 13.0664C145.984 13.7305 144.988 13.9648 144.129 13.7695C143.269 13.5742 142.664 13.1641 142.312 12.5391C141.961 11.9141 141.902 11.1914 142.137 10.3711C142.371 9.51172 143.016 8.78906 144.07 8.20312ZM155.482 36.9727C155.755 35.6836 155.951 34.5508 156.068 33.5742C156.224 32.5586 156.341 31.7188 156.419 31.0547C156.498 30.2734 156.537 29.6094 156.537 29.0625C156.498 28.3984 156.458 27.6172 156.419 26.7188C156.419 25.7812 156.38 24.8633 156.302 23.9648C156.263 23.0273 156.205 22.207 156.126 21.5039C156.048 20.7617 155.951 20.2344 155.833 19.9219C155.677 19.6094 155.462 19.2773 155.189 18.9258C154.642 18.2617 153.841 17.6172 152.787 16.9922C153.685 16.7969 154.447 16.6406 155.072 16.5234C155.736 16.3672 156.283 16.2305 156.712 16.1133C157.181 15.957 157.591 15.8203 157.943 15.7031C158.255 15.5859 158.626 15.4688 159.056 15.3516C159.408 15.2734 159.837 15.1758 160.345 15.0586C160.853 14.9414 161.439 14.8047 162.103 14.6484L161.927 19.9805C163.177 18.4961 164.447 17.3828 165.736 16.6406C167.025 15.8984 168.236 15.3711 169.369 15.0586C170.658 14.668 171.927 14.4727 173.177 14.4727C174.74 14.5508 176.185 14.8047 177.513 15.2344C178.88 15.6641 180.052 16.1719 181.029 16.7578C182.044 17.3047 182.865 17.8906 183.49 18.5156C184.115 19.1406 184.486 19.6875 184.603 20.1562C185.072 21.6797 185.189 23.0859 184.955 24.375C184.72 25.625 184.408 26.8555 184.017 28.0664C183.666 29.2383 183.353 30.4102 183.08 31.582C182.845 32.7539 182.943 34.0234 183.373 35.3906C183.529 35.7422 183.685 36.0938 183.841 36.4453C183.998 36.7578 184.193 37.0703 184.427 37.3828C184.662 37.6953 184.935 37.9492 185.248 38.1445C184.818 38.1055 184.388 38.0859 183.958 38.0859C183.529 38.0469 183.138 38.0078 182.787 37.9688C182.357 37.9297 181.966 37.8906 181.615 37.8516C181.224 37.8125 180.697 37.793 180.033 37.793C178.9 37.793 177.142 37.8516 174.759 37.9688C175.111 37.1484 175.384 36.4648 175.58 35.918C175.814 35.332 176.009 34.8633 176.166 34.5117C176.322 34.082 176.439 33.75 176.517 33.5156C176.986 32.3828 177.259 31.0938 177.337 29.6484C177.455 28.2031 177.357 26.7383 177.044 25.2539C176.927 24.7461 176.732 24.1406 176.458 23.4375C176.185 22.7344 175.814 22.0508 175.345 21.3867C174.916 20.7227 174.388 20.1562 173.763 19.6875C173.177 19.2188 172.494 18.9453 171.712 18.8672C170.931 18.7891 170.052 18.9844 169.076 19.4531C168.138 19.9219 167.123 20.7812 166.029 22.0312C165.208 23.0859 164.564 24.375 164.095 25.8984C163.666 27.1875 163.373 28.8086 163.216 30.7617C163.06 32.6758 163.294 34.9219 163.919 37.5C163.373 37.4219 162.865 37.3828 162.396 37.3828C161.927 37.3438 161.537 37.3047 161.224 37.2656C160.833 37.2266 160.482 37.1875 160.169 37.1484C159.818 37.1484 159.427 37.1289 158.998 37.0898C158.607 37.0898 158.119 37.0898 157.533 37.0898C156.947 37.0508 156.263 37.0117 155.482 36.9727ZM215.878 18.5742C215.761 17.793 215.663 17.1484 215.585 16.6406C215.507 16.0938 215.429 15.6641 215.351 15.3516C215.273 14.9609 215.214 14.668 215.175 14.4727C215.097 14.2773 214.999 14.0625 214.882 13.8281C214.804 13.6328 214.667 13.3984 214.472 13.125C214.316 12.8516 214.12 12.5391 213.886 12.1875C214.394 12.3437 214.901 12.4414 215.409 12.4805C215.956 12.5195 216.464 12.5586 216.933 12.5977C217.441 12.6367 217.968 12.6367 218.515 12.5977C219.062 12.5977 219.687 12.5781 220.39 12.5391C221.015 12.5 221.757 12.4805 222.616 12.4805C223.515 12.4414 224.53 12.3828 225.663 12.3047C224.999 12.4609 224.433 12.7344 223.964 13.125C223.534 13.4766 223.163 13.8672 222.851 14.2969C222.499 14.7656 222.206 15.2734 221.972 15.8203C221.776 16.3281 221.659 17.3047 221.62 18.75C221.581 20.1562 221.581 21.8359 221.62 23.7891C221.659 25.7031 221.698 27.7734 221.737 30C221.816 32.2266 221.855 34.3555 221.855 36.3867C221.894 38.418 221.894 40.2734 221.855 41.9531C221.816 43.5938 221.718 44.8047 221.562 45.5859C221.015 48.0469 219.999 50.0391 218.515 51.5625C217.03 53.125 215.077 53.9648 212.655 54.082C209.726 54.1992 207.401 53.9258 205.683 53.2617C204.003 52.5977 202.694 51.7773 201.757 50.8008C200.819 49.8633 200.116 48.9062 199.648 47.9297C199.179 46.9531 198.691 46.2109 198.183 45.7031C197.714 45.2734 197.245 44.8633 196.776 44.4727C196.347 44.1602 195.898 43.8477 195.429 43.5352C194.999 43.2227 194.569 43.0273 194.14 42.9492C195.273 42.9883 196.288 43.0078 197.187 43.0078C198.085 43.0078 198.847 43.0078 199.472 43.0078C200.175 43.0078 200.8 42.9883 201.347 42.9492H203.222H208.554C207.773 43.1836 207.187 43.4375 206.796 43.7109C206.405 44.0234 206.132 44.3359 205.976 44.6484C205.819 45 205.741 45.3516 205.741 45.7031C205.898 46.6406 206.405 47.3242 207.265 47.7539C208.124 48.1836 209.296 48.4375 210.78 48.5156C212.226 48.5938 213.222 48.5547 213.769 48.3984C214.316 48.2812 214.745 48.0469 215.058 47.6953C215.683 46.7578 216.21 45.5469 216.64 44.0625C216.952 42.8125 217.167 41.1914 217.284 39.1992C217.441 37.168 217.265 34.6875 216.757 31.7578C215.507 33.4766 214.062 34.7656 212.421 35.625C210.78 36.4844 209.218 37.1094 207.733 37.5C205.976 37.9297 204.198 38.1445 202.401 38.1445C197.675 37.9492 194.14 36.8555 191.796 34.8633C189.452 32.8711 188.378 30.1953 188.573 26.8359C188.691 25.1562 189.198 23.4766 190.097 21.7969C191.034 20.1172 192.245 18.6133 193.73 17.2852C195.253 15.957 196.991 14.9023 198.944 14.1211C200.898 13.3398 202.929 13.0078 205.038 13.125C206.64 13.2812 208.144 13.5742 209.55 14.0039C210.761 14.3945 211.952 14.9414 213.124 15.6445C214.335 16.3477 215.253 17.3242 215.878 18.5742ZM197.245 24.4336C197.011 25.957 197.108 27.3828 197.538 28.7109C198.007 30.0391 198.651 31.1914 199.472 32.168C200.292 33.1055 201.21 33.8477 202.226 34.3945C203.241 34.9023 204.198 35.1367 205.097 35.0977C206.972 35.0586 208.593 34.2188 209.96 32.5781C211.327 30.8984 212.148 28.3984 212.421 25.0781C212.538 23.4375 212.323 22.0312 211.776 20.8594C211.269 19.6484 210.624 18.6719 209.843 17.9297C209.062 17.1875 208.241 16.6602 207.382 16.3477C206.523 16.0352 205.839 15.8984 205.331 15.9375C204.628 16.0156 203.847 16.2305 202.987 16.582C202.167 16.8945 201.366 17.3828 200.585 18.0469C199.804 18.6719 199.101 19.5117 198.476 20.5664C197.89 21.6211 197.48 22.9102 197.245 24.4336ZM63.3632 52.9375C64.496 53.1328 65.4921 53.2695 66.3515 53.3477C67.2499 53.4258 67.9921 53.4844 68.578 53.5234C69.2812 53.5625 69.8866 53.582 70.3944 53.582C70.9022 53.582 71.6249 53.543 72.5624 53.4648C73.3437 53.3867 74.3593 53.2891 75.6093 53.1719C76.8983 53.0547 78.4804 52.8594 80.3554 52.5859C79.8085 52.7422 79.3007 53.1914 78.8319 53.9336C78.4022 54.6367 78.0116 55.3984 77.6601 56.2188C77.2304 57.1953 76.8593 58.2695 76.5468 59.4414C76.2733 60.4961 75.9218 61.9414 75.4921 63.7773C75.1015 65.6133 74.7108 67.6055 74.3202 69.7539C73.9687 71.9023 73.6952 74.0898 73.4999 76.3164C73.3046 78.5039 73.2655 80.5156 73.3827 82.3516C73.539 84.1875 73.9101 85.7109 74.496 86.9219C75.0819 88.0938 75.9804 88.7188 77.1913 88.7969C79.0272 88.9531 80.5507 88.9727 81.7616 88.8555C83.0116 88.6992 84.0272 88.4844 84.8085 88.2109C85.5897 87.9375 86.1952 87.625 86.6249 87.2734C87.0546 86.8828 87.3866 86.5117 87.621 86.1602C88.246 85.2617 88.8905 84.1094 89.5546 82.7031C90.2187 81.2969 90.8046 79.9492 91.3124 78.6602C91.8593 77.3711 92.3085 76.2773 92.6601 75.3789C93.0116 74.4805 93.1874 74.0508 93.1874 74.0898C93.1874 74.168 93.1679 74.6172 93.1288 75.4375C93.1288 76.2188 93.1093 77.1758 93.0702 78.3086C93.0702 79.4023 93.0507 80.5547 93.0116 81.7656C93.0116 82.9766 92.9921 84.0117 92.953 84.8711C92.914 85.5742 92.8749 86.3555 92.8358 87.2148C92.7968 87.957 92.7577 88.8359 92.7187 89.8516C92.7187 90.8672 92.6796 91.9805 92.6015 93.1914C90.9608 93.0742 89.3983 92.9961 87.914 92.957C86.4296 92.918 85.121 92.8984 83.9882 92.8984C82.6601 92.8984 81.4296 92.918 80.2968 92.957C79.0858 92.9961 77.6796 93.0547 76.078 93.1328C74.7108 93.2109 73.0116 93.3086 70.9804 93.4258C68.9491 93.5039 66.6054 93.6211 63.9491 93.7773C64.2616 93.2305 64.5155 92.7227 64.7108 92.2539C64.9452 91.7852 65.121 91.3945 65.2382 91.082C65.3944 90.6914 65.4921 90.3594 65.5312 90.0859C65.7655 88.8359 65.9608 87.2539 66.1171 85.3398C66.2733 83.3867 66.3905 81.3164 66.4687 79.1289C66.5858 76.9414 66.6444 74.7148 66.6444 72.4492C66.6835 70.1445 66.6835 68.0156 66.6444 66.0625C66.6054 64.1094 66.5272 62.4102 66.4101 60.9648C66.3319 59.5195 66.2147 58.5234 66.0585 57.9766C65.8632 57.3516 65.6288 56.7266 65.3554 56.1016C65.121 55.5547 64.828 55.0078 64.4765 54.4609C64.164 53.875 63.7929 53.3672 63.3632 52.9375ZM111.572 69.168C112.587 69.168 113.642 69.3633 114.736 69.7539C115.83 70.1055 116.884 70.5742 117.9 71.1602C118.916 71.707 119.833 72.3125 120.654 72.9766C121.513 73.6016 122.216 74.207 122.763 74.793C123.74 75.8477 124.404 77.2734 124.755 79.0703C125.146 80.8281 125.224 82.6445 124.99 84.5195C124.755 86.3555 124.208 88.0938 123.349 89.7344C122.49 91.375 121.298 92.5859 119.775 93.3672C118.681 93.9141 117.607 94.3438 116.552 94.6562C115.498 94.9688 114.482 95.2031 113.505 95.3594C112.529 95.5156 111.611 95.5938 110.751 95.5938C109.892 95.5938 109.15 95.5742 108.525 95.5352C107.353 95.457 106.123 95.0469 104.833 94.3047C103.583 93.5625 102.392 92.6445 101.259 91.5508C100.166 90.457 99.228 89.2656 98.4468 87.9766C97.6655 86.6484 97.1968 85.3984 97.0405 84.2266C96.8062 82.625 96.7671 80.9453 96.9233 79.1875C97.0796 77.4297 97.646 75.8086 98.6226 74.3242C99.6382 72.8398 101.162 71.6094 103.193 70.6328C105.263 69.6562 108.056 69.168 111.572 69.168ZM109.638 91.9023C110.068 91.9805 110.654 91.8828 111.396 91.6094C112.138 91.2969 112.861 90.8086 113.564 90.1445C114.306 89.4805 114.951 88.6406 115.498 87.625C116.083 86.5703 116.435 85.3008 116.552 83.8164C116.669 82.3711 116.669 81.043 116.552 79.832C116.474 78.6211 116.298 77.5664 116.025 76.668C115.751 75.7305 115.439 74.9688 115.087 74.3828C114.736 73.7969 114.365 73.3867 113.974 73.1523C113.31 72.8008 112.509 72.5273 111.572 72.332C110.634 72.0977 109.833 72.1367 109.169 72.4492C108.857 72.6055 108.466 72.9375 107.998 73.4453C107.529 73.9531 107.06 74.5977 106.591 75.3789C106.123 76.1211 105.693 76.9805 105.302 77.957C104.951 78.9336 104.697 79.9492 104.541 81.0039C104.384 82.0586 104.345 83.1914 104.423 84.4023C104.541 85.6133 104.794 86.7656 105.185 87.8594C105.576 88.9141 106.123 89.832 106.826 90.6133C107.568 91.3555 108.505 91.7852 109.638 91.9023ZM154.858 70.5742C154.741 69.793 154.644 69.1484 154.566 68.6406C154.487 68.0938 154.409 67.6641 154.331 67.3516C154.253 66.9609 154.194 66.668 154.155 66.4727C154.077 66.2773 153.98 66.0625 153.862 65.8281C153.784 65.6328 153.648 65.3984 153.452 65.125C153.296 64.8516 153.101 64.5391 152.866 64.1875C153.374 64.3438 153.882 64.4414 154.39 64.4805C154.937 64.5195 155.444 64.5586 155.913 64.5977C156.421 64.6367 156.948 64.6367 157.495 64.5977C158.042 64.5977 158.667 64.5781 159.37 64.5391C159.995 64.5 160.737 64.4805 161.597 64.4805C162.495 64.4414 163.511 64.3828 164.644 64.3047C163.98 64.4609 163.413 64.7344 162.944 65.125C162.515 65.4766 162.144 65.8672 161.831 66.2969C161.48 66.7656 161.187 67.2734 160.952 67.8203C160.757 68.3281 160.64 69.3047 160.601 70.75C160.562 72.1562 160.562 73.8359 160.601 75.7891C160.64 77.7031 160.679 79.7734 160.718 82C160.796 84.2266 160.835 86.3555 160.835 88.3867C160.874 90.418 160.874 92.2734 160.835 93.9531C160.796 95.5938 160.698 96.8047 160.542 97.5859C159.995 100.047 158.98 102.039 157.495 103.562C156.011 105.125 154.058 105.965 151.636 106.082C148.706 106.199 146.382 105.926 144.663 105.262C142.983 104.598 141.675 103.777 140.737 102.801C139.8 101.863 139.097 100.906 138.628 99.9297C138.159 98.9531 137.671 98.2109 137.163 97.7031C136.694 97.2734 136.226 96.8633 135.757 96.4727C135.327 96.1602 134.878 95.8477 134.409 95.5352C133.98 95.2227 133.55 95.0273 133.12 94.9492C134.253 94.9883 135.269 95.0078 136.167 95.0078C137.066 95.0078 137.827 95.0078 138.452 95.0078C139.155 95.0078 139.78 94.9883 140.327 94.9492H142.202H147.534C146.753 95.1836 146.167 95.4375 145.776 95.7109C145.386 96.0234 145.112 96.3359 144.956 96.6484C144.8 97 144.722 97.3516 144.722 97.7031C144.878 98.6406 145.386 99.3242 146.245 99.7539C147.105 100.184 148.276 100.438 149.761 100.516C151.206 100.594 152.202 100.555 152.749 100.398C153.296 100.281 153.726 100.047 154.038 99.6953C154.663 98.7578 155.191 97.5469 155.62 96.0625C155.933 94.8125 156.148 93.1914 156.265 91.1992C156.421 89.168 156.245 86.6875 155.737 83.7578C154.487 85.4766 153.042 86.7656 151.401 87.625C149.761 88.4844 148.198 89.1094 146.714 89.5C144.956 89.9297 143.179 90.1445 141.382 90.1445C136.655 89.9492 133.12 88.8555 130.776 86.8633C128.433 84.8711 127.358 82.1953 127.554 78.8359C127.671 77.1562 128.179 75.4766 129.077 73.7969C130.015 72.1172 131.226 70.6133 132.71 69.2852C134.233 67.957 135.972 66.9023 137.925 66.1211C139.878 65.3398 141.909 65.0078 144.019 65.125C145.62 65.2812 147.124 65.5742 148.53 66.0039C149.741 66.3945 150.933 66.9414 152.105 67.6445C153.316 68.3477 154.233 69.3242 154.858 70.5742ZM136.226 76.4336C135.991 77.957 136.089 79.3828 136.519 80.7109C136.987 82.0391 137.632 83.1914 138.452 84.168C139.273 85.1055 140.191 85.8477 141.206 86.3945C142.222 86.9023 143.179 87.1367 144.077 87.0977C145.952 87.0586 147.573 86.2188 148.941 84.5781C150.308 82.8984 151.128 80.3984 151.401 77.0781C151.519 75.4375 151.304 74.0312 150.757 72.8594C150.249 71.6484 149.605 70.6719 148.823 69.9297C148.042 69.1875 147.222 68.6602 146.362 68.3477C145.503 68.0352 144.819 67.8984 144.312 67.9375C143.608 68.0156 142.827 68.2305 141.968 68.582C141.148 68.8945 140.347 69.3828 139.566 70.0469C138.784 70.6719 138.081 71.5117 137.456 72.5664C136.87 73.6211 136.46 74.9102 136.226 76.4336Z" fill="white"/>
</svg>
